# xmcd
#
# Track frame offsets:
#	150
#	13270
#	26980
#	40850
#	54437
#	67790
#	81425
#	95172
#	108945
#	122905
#	137012
#	150350
#	163492
#	175670
#	190707
#	204330
#
# Disc length: 2915
#
# Revision: 1
# Processed by: cddbd v1.5.1PL0 Copyright (c) Steve Scherf et al.
# Submitted via: CDex 1.51
# Normalized: r0:TRMNUM
#
DISCID=d60b6110
DTITLE=Thelonious Monk - 1st and 2nd Session on Blue Note
DYEAR=1947
DGENRE=Jazz
TTITLE0=Humph
TTITLE1=Evonce (alternate take)
TTITLE2=Evonce
TTITLE3=Suburban Eyes
TTITLE4=Suburban Eyes (alternate take)
TTITLE5=Thelonious
TTITLE6=Nice Work If You Can Get It (alternate take)
TTITLE7=Nice Work If You Can Get It
TTITLE8=Ruby My Dear (alternate take)
TTITLE9=Ruby My Dear
TTITLE10=Well You Needn't
TTITLE11=Well You Needn't (alternate take)
TTITLE12=April in Paris (alternate take)
TTITLE13=April in Paris
TTITLE14=Off Minor
TTITLE15=Introspection
EXTD=YEAR: 1947
EXTT0=
EXTT1=
EXTT2=
EXTT3=
EXTT4=
EXTT5=
EXTT6=
EXTT7=
EXTT8=
EXTT9=
EXTT10=
EXTT11=
EXTT12=
EXTT13=
EXTT14=
EXTT15=
PLAYORDER=
